<svg width="80" height="63" viewBox="0 0 80 63" fill="none" xmlns="http://www.w3.org/2000/svg">
<path d="M21.1344 38.5243L15.4859 25.704H0V0H79.9998V25.704H26.783L21.1344 38.5243ZM77.8102 23.5144V2.1896H2.1896V23.5144H16.8822L21.1344 33.3835L25.3867 23.5144H77.8102Z" fill="#654180"/>
<path d="M23.4195 59.627V54.5814H21.3885V53.0265H27.3544V54.5814H25.3552V59.627H23.4195ZM29.8931 58.0403C29.6075 57.7865 29.4806 57.3422 29.4488 56.771H34.2406C34.2723 56.2633 34.2406 55.7555 34.1136 55.3113C33.9867 54.8353 33.7963 54.4227 33.5424 54.0419C33.2886 53.6611 32.9395 53.3755 32.527 53.1534C32.1144 52.9313 31.6067 52.8361 31.0672 52.8361C30.5595 52.8361 30.1152 52.9313 29.7027 53.0899C29.2902 53.2803 28.9411 53.5025 28.6238 53.8198C28.3382 54.1371 28.0843 54.4862 27.9256 54.9305C27.767 55.343 27.6718 55.819 27.6718 56.3267C27.6718 56.8345 27.767 57.3105 27.8939 57.723C28.0526 58.1673 28.2747 58.5163 28.5603 58.8337C28.8459 59.151 29.195 59.3731 29.6392 59.5318C30.0518 59.6905 30.5278 59.7857 31.0355 59.7857C31.7971 59.7857 32.4318 59.627 32.9395 59.2779C33.479 58.9289 33.8598 58.3577 34.1136 57.5643H32.527C32.4635 57.7547 32.3048 57.9769 32.051 58.1355C31.7971 58.3259 31.4798 58.4211 31.099 58.4211C30.5595 58.4529 30.1787 58.3259 29.8931 58.0403ZM31.9558 54.5814C32.1779 54.8353 32.3366 55.1843 32.4 55.6286H29.4488C29.4488 55.5017 29.4806 55.343 29.544 55.1843C29.5758 55.0257 29.671 54.867 29.7979 54.7083C29.9248 54.5497 30.0518 54.4545 30.2739 54.3593C30.4643 54.2641 30.7182 54.2006 31.0038 54.2006C31.4163 54.2006 31.7336 54.3275 31.9558 54.5814ZM42.8403 58.0403C42.5547 57.7865 42.4278 57.3422 42.396 56.771H47.1878C47.2195 56.2633 47.1878 55.7555 47.0609 55.3113C46.9339 54.8353 46.7435 54.4227 46.4896 54.0419C46.2041 53.6611 45.8867 53.3755 45.4742 53.1534C45.0616 52.9313 44.5539 52.8361 43.9827 52.8361C43.475 52.8361 43.0307 52.9313 42.6182 53.0899C42.2056 53.2803 41.8566 53.5025 41.5392 53.8198C41.2536 54.1371 40.9998 54.4862 40.8411 54.9305C40.6824 55.343 40.5872 55.819 40.5872 56.3267C40.5872 56.8345 40.6507 57.3105 40.8094 57.723C40.968 58.1673 41.1902 58.5163 41.4758 58.8337C41.7614 59.151 42.1104 59.3731 42.523 59.5318C42.9355 59.6905 43.4115 59.7857 43.9192 59.7857C44.6808 59.7857 45.3155 59.627 45.855 59.2779C46.3944 58.9289 46.7752 58.3577 47.0291 57.5643H45.4424C45.379 57.7547 45.2203 57.9769 44.9664 58.1355C44.7126 58.3259 44.3952 58.4211 44.0144 58.4211C43.5067 58.4529 43.0942 58.3259 42.8403 58.0403ZM44.8712 54.5814C45.0934 54.8353 45.252 55.1843 45.3155 55.6286H42.3643C42.3643 55.5017 42.396 55.343 42.4595 55.1843C42.4912 55.0257 42.5864 54.867 42.7134 54.7083C42.8403 54.5497 42.999 54.4545 43.1894 54.3593C43.3798 54.2641 43.6336 54.2006 43.9192 54.2006C44.3318 54.2006 44.6808 54.3275 44.8712 54.5814ZM47.9177 53.0265V59.6587H49.7899V57.4057L50.5198 56.7075L52.4238 59.6587H54.6769L51.7891 55.4382L54.2643 53.0265H52.043L49.7899 55.3747V53.0265H47.9177ZM36.0494 59.627L37.4139 54.9305L38.7784 59.627H40.5872L38.9054 53.8833C38.715 53.2803 38.2707 52.9313 37.5726 52.8361H37.5091H37.4139H37.3822H37.287H37.2235C36.5254 52.8995 36.0494 53.2803 35.8907 53.8833L34.2088 59.627H36.0494ZM63.9747 54.9305L65.3393 59.627H67.1481L68.5126 54.9305L69.4646 59.627H71.2734L70.0041 53.8833C69.8454 53.2803 69.3694 52.8995 68.6713 52.8361H68.6078H68.5126H68.4809H68.3857H68.3222C67.6241 52.8995 67.1798 53.2803 66.9894 53.8833L66.2278 56.9614L65.4345 53.8833C65.2758 53.2803 64.7998 52.8995 64.1017 52.8361H64.0382H63.943H63.9113H63.8478H63.7843C63.0862 52.8995 62.6102 53.2803 62.4515 53.8833L61.1822 59.627H62.991L63.9747 54.9305ZM54.4865 54.8987C54.3278 55.343 54.2326 55.819 54.2326 56.3267C54.2326 56.8662 54.3278 57.3422 54.4865 57.7547C54.6451 58.1673 54.8673 58.5481 55.1846 58.8337C55.4702 59.1193 55.851 59.3731 56.2635 59.5318C56.6761 59.6905 57.1521 59.7857 57.6598 59.7857C58.1675 59.7857 58.6435 59.6905 59.0878 59.5318C59.5003 59.3731 59.8811 59.151 60.1667 58.8337C60.4523 58.5163 60.7062 58.1673 60.8649 57.7547C61.0235 57.3105 61.1187 56.8345 61.1187 56.3267C61.1187 55.7873 61.0553 55.3113 60.8649 54.8987C60.7062 54.4545 60.4841 54.1054 60.1667 53.7881C59.8811 53.4707 59.5003 53.2486 59.0878 53.0899C58.6753 52.9313 58.1993 52.8361 57.6598 52.8361C57.1521 52.8361 56.6761 52.9313 56.2635 53.0899C55.851 53.2486 55.5019 53.5025 55.1846 53.7881C54.8673 54.0737 54.6451 54.4545 54.4865 54.8987ZM56.1366 57.0883C56.0731 56.8345 56.0731 56.5806 56.0731 56.3267C56.0731 56.0729 56.1049 55.7873 56.1366 55.5334C56.2001 55.2795 56.2635 55.0574 56.3905 54.867C56.5174 54.6766 56.6761 54.5179 56.8665 54.391C57.0886 54.2641 57.3425 54.2006 57.6281 54.2006C57.9454 54.2006 58.1993 54.2641 58.3897 54.391C58.6118 54.5179 58.7705 54.6766 58.8974 54.867C59.0243 55.0574 59.1195 55.2795 59.1513 55.5334C59.2147 55.7873 59.2465 56.0411 59.2465 56.3267C59.2465 56.5806 59.2147 56.8662 59.1513 57.0883C59.0878 57.3422 59.0243 57.5643 58.8974 57.7547C58.7705 57.9451 58.6118 58.1038 58.3897 58.2307C58.1675 58.3577 57.9137 58.4211 57.6281 58.4211C57.3107 58.4211 57.0569 58.3577 56.8665 58.2307C56.6761 58.1038 56.4857 57.9451 56.3905 57.7547C56.2635 57.5961 56.2001 57.3422 56.1366 57.0883Z" fill="#6D6E71"/>
<path d="M7.20372 53.0265H9.07599V55.3748L11.3291 53.0265H13.5504L11.0752 55.4383L13.9629 59.6588H11.7099L9.80586 56.7076L9.07599 57.4057V59.6588H7.20372V53.0265ZM21.1664 56.4855C21.1664 57.0567 21.0712 57.5327 20.9125 57.9452C20.7539 58.3578 20.5317 58.7386 20.2144 59.0559C19.9288 59.3732 19.548 59.5954 19.1355 59.754C18.7229 59.9127 18.2469 60.0079 17.7075 60.0079C16.9141 60.0079 16.1843 59.5636 16.1208 59.5319V62.0706H14.312V53.0583H16.1208V53.5343C16.1843 53.5025 16.9141 53.0583 17.7075 53.0583C18.2152 53.0583 18.6912 53.1535 19.1355 53.3121C19.548 53.4708 19.9288 53.6929 20.2144 54.0103C20.5 54.2959 20.7539 54.6767 20.9125 55.0892C21.0712 55.47 21.1664 55.9777 21.1664 56.4855ZM19.2624 57.2788C19.3259 57.025 19.3259 56.7711 19.3259 56.5172V56.4855C19.3259 56.2316 19.2941 55.9778 19.2624 55.7239C19.1989 55.47 19.1355 55.2479 19.0085 55.0575C18.8816 54.8671 18.7229 54.7084 18.5008 54.5815C18.2787 54.4545 18.0248 54.3911 17.7392 54.3911C17.4219 54.3911 17.168 54.4545 16.9776 54.5815C16.7872 54.7084 16.5968 54.8671 16.4699 55.0575C16.3429 55.2479 16.2477 55.47 16.216 55.7239C16.1843 55.946 16.1525 56.1999 16.1525 56.4537V56.6124C16.1525 56.8663 16.1843 57.0884 16.216 57.3423C16.2795 57.5961 16.3429 57.8183 16.4699 58.0087C16.5968 58.1991 16.7555 58.3578 16.9776 58.4847C17.1997 58.6116 17.4536 58.6751 17.7392 58.6751C18.0565 58.6751 18.3104 58.6116 18.5008 58.4847C18.7229 58.3578 18.8816 58.1991 19.0085 58.0087C19.1355 57.7548 19.1989 57.5327 19.2624 57.2788ZM4.28425 53.0265V56.7394C4.28425 57.1836 4.15732 57.5009 3.96692 57.7231C3.74478 57.9452 3.45918 58.0722 2.98318 58.0722C2.60238 58.0722 2.31678 57.977 2.12638 57.7866C1.90425 57.5962 1.77731 57.3106 1.77731 56.8346V52.9948H0.000244141C0.000244141 52.9948 0.000244141 55.2796 0.000244141 56.6441C0.000244141 58.0087 0.285845 58.4212 0.761845 58.8972C1.17438 59.3098 1.80905 59.6271 2.69758 59.6271C3.58611 59.6271 4.15732 59.1194 4.28425 59.0242C4.31598 59.4684 4.25252 59.9127 3.83998 60.2618C3.58612 60.4522 2.72931 60.9282 1.36478 60.3252L0.983979 61.785C1.49171 62.0388 2.22158 62.2292 3.04665 62.1975C3.61785 62.1975 4.41118 61.9754 5.01412 61.4994C5.61705 61.0234 6.06132 60.2935 6.06132 59.0559V52.9948H4.28425" fill="#00BCDF"/>
<path d="M58.3897 40.9995C57.7551 40.9995 57.2473 41.5072 57.2473 42.1419V47.9809H63.1497C63.7844 47.9809 64.2921 47.4731 64.2921 46.8385V40.9995H58.3897Z" fill="#00A651"/>
<path d="M58.3894 40.9995H64.2919V39.7619C64.2919 39.1272 63.7841 38.6195 63.1495 38.6195H61.7849V37.0328L60.0396 38.6195H53.4708C52.8361 38.6195 52.3284 39.1272 52.3284 39.7619V46.8067C52.3284 47.4414 52.8361 47.9491 53.4708 47.9491H57.247V42.1102C57.2153 41.539 57.7548 40.9995 58.3894 40.9995Z" fill="#A5CF4C"/>
<path d="M80.0001 43.3161C80.0001 40.6505 77.0171 38.5244 73.3361 38.5244C70.8291 38.5244 68.6078 39.5398 67.4971 41.0313H72.987C73.6217 41.0313 74.1294 41.539 74.1294 42.1737V48.0761C74.9227 48.0126 75.6526 47.854 76.319 47.6001L78.4769 48.4886L77.747 46.902C79.1433 46.0134 80.0001 44.7441 80.0001 43.3161Z" fill="#EF3F6B"/>
<path d="M66.6722 43.316C66.6722 42.491 66.9578 41.6976 67.4973 40.9995H64.2605V46.8385C64.2605 47.4731 63.7528 47.9809 63.1181 47.9809H57.2157V49.2185C57.2157 49.8531 57.7234 50.3609 58.3581 50.3609H59.9765V51.9475L61.7218 50.3609H72.9872C73.6218 50.3609 74.1296 49.8531 74.1296 49.2185V48.0761C73.8757 48.1078 73.5901 48.1078 73.3363 48.1078C69.6552 48.1078 66.6722 45.9499 66.6722 43.316Z" fill="#00BCDF"/>
<path d="M72.987 40.9995H67.4971C66.9894 41.6976 66.6721 42.4592 66.6721 43.316C66.6721 45.9817 69.655 48.1078 73.3361 48.1078C73.6217 48.1078 73.8755 48.1078 74.1294 48.0761V42.1736C74.1294 41.539 73.6217 40.9995 72.987 40.9995Z" fill="#654180"/>
<path d="M20.024 8.40936V10.1864H14.3754V11.3288H18.0248C19.8336 11.3288 21.1346 12.5664 21.1029 14.2483C21.1029 15.8984 19.8018 17.263 17.993 17.2312H12.3445L12.3762 8.40936H20.024ZM14.3437 15.4542H17.8661C18.7864 15.4542 19.1354 14.9147 19.1354 14.2483C19.1354 13.5819 18.7864 13.1059 17.8661 13.1059H14.3754L14.3437 15.4542Z" fill="#654180"/>
<path d="M24.8477 8.44104L24.816 17.2947H22.8168L22.8485 8.44104H24.8477Z" fill="#654180"/>
<path d="M32.6222 11.7413C33.0982 11.7413 33.3521 11.5191 33.3521 11.0431C33.3521 10.345 32.6222 9.99595 31.0673 9.99595C29.5123 9.99595 28.6873 10.2181 27.5766 10.9162L26.7515 9.48821C28.1478 8.53621 29.4806 8.25061 31.0673 8.25061C32.4635 8.25061 33.6377 8.50448 34.3993 9.04394C35.0339 9.48821 35.383 10.1229 35.383 11.0114C35.383 11.5826 35.1609 12.0903 34.7166 12.3759C35.5099 12.7885 35.9542 13.4866 35.9542 14.5021C35.9542 15.3906 35.5099 16.1205 34.7483 16.6917C33.9233 17.3264 32.6222 17.5485 31.0673 17.5485C29.1633 17.5485 27.8305 17.1677 26.4025 16.184L27.3227 14.6925C28.4334 15.3906 29.671 15.7714 31.1625 15.7714C32.8443 15.7714 33.955 15.4224 33.955 14.4069C33.955 13.8039 33.6059 13.5183 32.6539 13.5183H29.1315V11.773L32.6222 11.7413Z" fill="#654180"/>
<path d="M39.7299 8.47278V11.8365H44.712V8.47278H46.7113L46.6795 17.3264H44.6803V13.6453H39.6982V17.3264H37.699L37.7307 8.47278H39.7299Z" fill="#654180"/>
<path d="M56.9616 8.50451V10.3133L50.9323 10.2816V11.9H56.3587V13.7088H50.9323V15.4541L57.1838 15.4858V17.3264L48.9331 17.2947L48.9648 8.44104L56.9616 8.50451Z" fill="#654180"/>
<path d="M66.4817 11.5827C65.8153 10.6307 64.9268 10.0912 63.5305 10.0912C61.7534 10.0912 60.611 11.2019 60.611 12.9472C60.611 14.6608 61.8169 15.8032 63.5305 15.8032C64.9268 15.8032 65.8153 15.2955 66.4817 14.3117L68.0366 15.2003C67.1164 16.7552 65.6249 17.5486 63.5622 17.5486C60.738 17.5486 58.6436 15.7715 58.6436 12.9155C58.6436 10.0595 60.8014 8.28241 63.594 8.28241C65.6566 8.28241 67.1481 9.10748 68.0684 10.6624L66.4817 11.5827Z" fill="#654180"/>
</svg>
